<?xml version="1.0" encoding="utf-8"?>
<!-- Generator: Adobe Illustrator 25.2.1, SVG Export Plug-In . SVG Version: 6.00 Build 0)  -->
<svg version="1.1" id="Layer_1" xmlns="http://www.w3.org/2000/svg" xmlns:xlink="http://www.w3.org/1999/xlink" x="0px" y="0px"
	 viewBox="0 0 40 40" style="enable-background:new 0 0 40 40;" xml:space="preserve">
<style type="text/css">
	.st0{fill:#FF654D;}
	.st1{fill-rule:evenodd;clip-rule:evenodd;fill:#FCD02F;}
	.st2{fill-rule:evenodd;clip-rule:evenodd;fill:#070404;}
	.st3{fill-rule:evenodd;clip-rule:evenodd;fill:#080504;}
	.st4{fill-rule:evenodd;clip-rule:evenodd;fill:#0E0808;}
</style>
<g id="Group_16140" transform="translate(-24 -55)">
	<circle id="Ellipse_16" class="st0" cx="44" cy="75" r="20"/>
	<g id="s3" transform="translate(-372.5 6.013)">
		<path id="Path_2062" class="st1" d="M414.5,57.1c5.7-0.5,10,1.7,12.8,6.6c2.2,5.1,1.4,9.7-2.3,13.8c-4.1,3.7-8.7,4.5-13.9,2.4
			c-6-3-8.3-10.4-5.3-16.3c1.2-2.4,3.3-4.4,5.7-5.5C412.5,57.7,413.5,57.4,414.5,57.1z"/>
		<g id="Group_16164" transform="translate(410.168 63.07)">
			<path id="Path_2067" class="st2" d="M9.4,0c0.7-0.2,1.4,0.3,1.6,1c0,0,0,0,0,0c0.2,0.9,0,1.7-0.4,2.5C9.7,4.1,9.1,3.9,8.8,2.8
				C8.5,1.8,8.7,0.8,9.4,0z"/>
			<path id="Path_2068" class="st3" d="M2.4,0c0.7-0.1,1.4,0.3,1.5,1c0,0.1,0,0.2,0,0.2C4.2,2.1,4,3,3.4,3.7C2.9,4,2.3,3.9,1.9,3.5
				c0-0.1-0.1-0.1-0.1-0.2C1.3,2.2,1.5,0.9,2.4,0z"/>
			<path id="Path_2071" class="st4" d="M4.8,7.4c2.1-0.4,4.3,0.2,6,1.4c1.2,1.2,1.9,2.9,1.8,4.6c-0.2,0.2-0.5,0.2-0.6,0
				C11.7,10,9.8,8.2,6.3,8.2C4.2,8,2.1,9.1,1.2,11.1c-0.3,0.8-0.5,1.6-0.6,2.4c-0.2,0.1-0.4,0.2-0.6,0.1C-0.3,10.6,1.8,7.9,4.8,7.4z
				"/>
		</g>
	</g>
</g>
</svg>
