<?xml version="1.0" encoding="utf-8"?>
<!-- Generator: Adobe Illustrator 25.2.1, SVG Export Plug-In . SVG Version: 6.00 Build 0)  -->
<svg version="1.1" id="Layer_1" xmlns="http://www.w3.org/2000/svg" xmlns:xlink="http://www.w3.org/1999/xlink" x="0px" y="0px"
	 viewBox="0 0 40 40" style="enable-background:new 0 0 40 40;" xml:space="preserve">
<style type="text/css">
	.st0{fill:#119460;}
	.st1{fill-rule:evenodd;clip-rule:evenodd;fill:#FCD02F;}
	.st2{fill-rule:evenodd;clip-rule:evenodd;fill:#090605;}
	.st3{fill-rule:evenodd;clip-rule:evenodd;fill:#080505;}
	.st4{fill-rule:evenodd;clip-rule:evenodd;fill:#0E0907;}
</style>
<g id="Group_16138" transform="translate(-24 -55)">
	<circle id="Ellipse_16" class="st0" cx="44" cy="75" r="20"/>
	<g id="S1" transform="translate(16.378 5.811)">
		<path id="Path_2061" class="st1" d="M25.7,57.2c6.5-0.4,11,2.4,13.5,8.3c1.1,4,0.2,8.2-2.3,11.5c-2.8,3.1-7,4.6-11.1,4.1
			c-4.3-0.7-7.9-3.7-9.4-7.8c-1.8-6.1-0.1-10.9,5.1-14.6l2-1C24.2,57.7,25,57.5,25.7,57.2z"/>
		<g id="Group_16162" transform="translate(21.293 63.25)">
			<g id="Group_16153" transform="translate(1.483 0.017)">
				<path id="Path_2064" class="st2" d="M0.8,0c0.8-0.2,1.5,0.3,1.7,1.1c0,0,0,0.1,0,0.1c0.2,0.8,0,1.7-0.6,2.4
					C1,4.1,0.4,3.8,0.1,2.8C-0.2,1.8,0.1,0.7,0.8,0z"/>
			</g>
			<path id="Path_2069" class="st3" d="M9.4,0C10.1-0.2,10.8,0.2,11,1c0,0.1,0,0.1,0,0.2c0.3,1,0,2.1-0.8,2.7C9.5,4,8.8,3.4,8.7,2.7
				c0,0,0-0.1,0-0.1c-0.1-0.4-0.1-0.8,0-1.3C8.8,0.8,9,0.4,9.4,0z"/>
			<path id="Path_2072" class="st4" d="M0,7.5c0.2,0,0.4,0,0.6,0.1c0.3,3.5,2.3,5.3,5.8,5.3c2.4,0.3,4.6-1.2,5.3-3.5
				c0.1-0.6,0.3-1.2,0.4-1.8c0.3-0.2,0.5-0.1,0.6,0.3c-0.5,3.8-2.7,5.7-6.5,5.7C2.2,13.6,0.1,11.5,0,7.5z"/>
		</g>
	</g>
</g>
</svg>
