<svg xmlns="http://www.w3.org/2000/svg" width="40" height="40" viewBox="0 0 40 40">
  <g id="Group_16139" data-name="Group 16139" transform="translate(-24 -55)">
    <circle id="Ellipse_16" data-name="Ellipse 16" cx="20" cy="20" r="20" transform="translate(24 55)" fill="#ff981f"/>
    <g id="S2" transform="translate(-178.294 5.927)">
      <path id="Path_2063" data-name="Path 2063" d="M220.408,57.126q8.817-.671,12.925,7.04,3,8.2-3.341,14.142a12.262,12.262,0,0,1-12.357,1.886,12.761,12.761,0,0,1-7.25-9.239,12.769,12.769,0,0,1,3.341-10.371A14.234,14.234,0,0,1,220.408,57.126Z" fill="#fdd02f" fill-rule="evenodd"/>
      <g id="Group_16163" data-name="Group 16163" transform="translate(215.876 63.153)">
        <path id="Path_2065" data-name="Path 2065" d="M268.072,105.5a1.631,1.631,0,0,1,1.765,1.76,3.893,3.893,0,0,1-.441,1.634q-1.43,1.177-2.017-.629A2.969,2.969,0,0,1,268.072,105.5Z" transform="translate(-265.684 -105.492)" fill="#080505" fill-rule="evenodd"/>
        <path id="Path_2066" data-name="Path 2066" d="M324.445,105.446a1.315,1.315,0,0,1,1.576,1.257,2.7,2.7,0,0,1-.567,2.451,1.036,1.036,0,0,1-1.45-.314A2.6,2.6,0,0,1,324.445,105.446Z" transform="translate(-314.87 -105.439)" fill="#090606" fill-rule="evenodd"/>
        <path id="Path_2070" data-name="Path 2070" d="M254.679,186.445q6.305-.031,12.609.063a.38.38,0,0,1-.126.629q-6.242.126-12.483,0A.564.564,0,0,1,254.679,186.445Z" transform="translate(-254.561 -176.255)" fill="#0a0501" fill-rule="evenodd"/>
      </g>
    </g>
  </g>
</svg>
